<?xml version="1.0" encoding="utf-8"?>
<!-- Generator: Adobe Illustrator 17.1.0, SVG Export Plug-In . SVG Version: 6.00 Build 0)  -->
<!DOCTYPE svg PUBLIC "-//W3C//DTD SVG 1.1//EN" "http://www.w3.org/Graphics/SVG/1.1/DTD/svg11.dtd">
<svg version="1.1" id="Layer_1" xmlns="http://www.w3.org/2000/svg" xmlns:xlink="http://www.w3.org/1999/xlink" x="0px" y="0px"
	 viewBox="245 -106 310 382" enable-background="new 245 -106 310 382" xml:space="preserve">
<g>
	<g>
		<path d="M337.057,176.144l-4.865,15.02h9.73l-4.745-15.02H337.057z M517.318,230.441l-4.941,15.251h9.882l-4.818-15.251H517.318z
			 M346.739,87.653c8.329,0,11.521-7.358,11.521-14.715c0-7.359-3.193-14.716-11.521-14.716c-8.331,0-11.524,7.357-11.524,14.716
			C335.215,80.295,338.408,87.653,346.739,87.653z M382.864,121.785c0-3.406-2.698-4.948-6.04-4.948h-9.508v10.344h10.022
			C380.937,127.181,382.864,125.253,382.864,121.785z M400-106L245,42v234h310V42L400-106z M495.711,48.157h25.266
			c8.747,0,17.353,3.956,17.353,13.951c0,5.345-2.567,10.412-7.773,12.425v0.139c5.275,1.249,6.801,7.149,7.219,11.87
			c0.138,2.083,0.347,9.371,2.08,11.175h-12.77c-1.11-1.665-1.32-6.524-1.458-7.913c-0.346-4.998-1.179-10.135-7.219-10.135h-9.788
			v18.048h-12.908v-49.56H495.711z M488.557,124.868v9.253H466.07v8.739h25.249v10.279h-37.2v-45.873h36.56v9.572H466.07v8.031
			h22.487V124.868z M439.829,48.157h39.496V58.5H452.74v8.677h24.295v9.995H452.74v9.441h27.28v11.105h-40.191V48.157z
			 M439.727,124.868v9.253h-22.488v8.739h25.25v10.279h-37.2v-45.873h36.557v9.572h-24.607v8.031h22.488V124.868z M394.775,48.157
			l9.719,36.857h0.139l9.717-36.857h13.465l-16.035,49.56h-14.854l-15.618-49.56H394.775z M394.813,120.179
			c0,4.947-2.375,9.637-7.193,11.501v0.127c4.883,1.157,6.294,6.619,6.681,10.989c0.128,1.926,0.32,8.672,1.926,10.343h-11.82
			c-1.029-1.542-1.223-6.038-1.35-7.325c-0.32-4.625-1.092-9.38-6.682-9.38h-9.059v16.704h-11.95v-45.873h23.386
			C386.848,107.265,394.813,110.926,394.813,120.179z M346.739,47.116c15.618,0,24.433,11.452,24.433,25.821
			s-8.815,25.821-24.433,25.821c-15.618,0-24.435-11.452-24.435-25.821S331.121,47.116,346.739,47.116z M305.956,117.543v-10.279
			h39.32v10.279H331.59v35.595h-11.95v-35.595H305.956z M263.161,48.157h21.309c15.201,0,24.294,9.231,24.294,24.572
			c0,16.242-9.231,24.988-24.294,24.988h-21.309V48.157z M273.378,133.478c-6.553-1.863-13.428-4.819-13.428-13.236
			c0-10.022,10.087-13.941,18.697-13.941c9.123,0,18.31,4.434,18.374,14.777h-11.95c0.194-4.176-3.725-5.525-7.388-5.525
			c-2.57,0-5.782,0.9-5.782,3.919c0,3.533,6.617,4.175,13.299,6.04c6.617,1.862,13.299,4.947,13.299,13.235
			c0,11.629-9.894,15.354-19.981,15.354c-10.537,0-19.854-4.624-19.917-16.381h11.95c0.258,5.395,3.598,7.13,8.674,7.13
			c3.598,0,7.325-1.284,7.325-4.691C286.549,136.112,279.995,135.342,273.378,133.478z M301.51,261.919h-7.321l-0.671-4.757
			c-2.989,4.21-8.114,5.672-12.141,5.672c-13.178,0-21.718-10.067-21.718-22.694c0-12.628,8.54-22.693,21.718-22.693
			c9.029,0,18.668,4.818,19.705,15.739h-11.347c-0.366-3.722-4.026-5.979-8.602-5.979c-7.321,0-10.127,6.467-10.127,12.933
			s2.806,12.933,10.127,12.933c5.612,0,9.395-2.621,10.005-6.587h-7.93v-8.418h18.302V261.919z M309.119,207.138h-10.511v-32.554
			h-0.121l-9.009,32.554h-8.53l-9.009-32.554h-0.12v32.554h-10.513v-42.886h16.458l7.389,28.591h0.12l7.389-28.591h16.458
			L309.119,207.138L309.119,207.138z M341.599,261.919h-11.347v-43.558h11.346v43.558H341.599z M347.207,207.138l-2.641-7.687
			h-14.958l-2.703,7.687h-11.473l16.039-42.886h11.352l16.038,42.886H347.207z M365.053,164.253h21.865
			c7.568,0,15.016,3.425,15.016,12.074c0,4.623-2.222,9.01-6.728,10.752v0.117c4.566,1.082,5.887,6.189,6.249,10.274
			c0.117,1.801,0.301,8.108,1.801,9.668h-11.053c-0.96-1.439-1.14-5.645-1.26-6.848c-0.303-4.324-1.022-8.769-6.249-8.769h-8.469
			v15.617h-11.172L365.053,164.253L365.053,164.253z M408.407,261.919h-11.654l-15.129-27.145h-0.123v27.145h-10.675v-43.558h11.652
			l15.131,26.844h0.12v-26.844h10.679v43.558H408.407z M423.743,193.925v13.214h-11.172v-42.886h11.172v16.457l14.117-16.457h13.875
			l-15.858,16.877l17.839,26.009H439.84l-11.531-18.017L423.743,193.925z M472.961,261.919h-37.763v-9.272l22.327-24.525H436.54
			v-9.761h35.626v8.785l-22.878,25.013h23.673V261.919z M494.807,207.138h-34.779v-42.886h34.178v8.951h-23.005v7.506h21.023v8.649
			h-21.023v8.171h23.606V207.138z M527.628,261.919l-2.686-7.807h-15.189l-2.744,7.807h-11.655l16.289-43.558h11.532l16.288,43.558
			H527.628z M502.562,173.865v-9.612h36.759v9.612h-12.795v33.274h-11.17v-33.274H502.562z M540.601,117.543h-13.684v35.595h-11.951
			v-35.595h-13.684v-10.279h39.319L540.601,117.543L540.601,117.543z M295.854,72.659c0-9.024-4.86-13.398-13.674-13.398h-6.109
			v27.35h6.109C291.967,86.403,295.854,82.585,295.854,72.659z M390.761,177.828c0-3.184-2.521-4.624-5.646-4.624h-8.89v9.668h9.37
			C388.959,182.872,390.761,181.07,390.761,177.828z M525.419,63.844c0-3.679-2.915-5.345-6.525-5.345H508.62v11.175h10.83
			C523.336,69.674,525.419,67.591,525.419,63.844z" style="fill: black;"/>
	</g>
</g>
</svg>
